<svg id="Layer_1" fill="#2f3542" enable-background="new 0 0 512 512" height="512" viewBox="0 0 512 512" width="512" xmlns="http://www.w3.org/2000/svg"><g><path d="m220.873 102.806c66.472-17.809 108.284-13.947 134.77-6.512 1.932-5.985 2.992-12.427 2.992-19.332.001-50.828-57.233-76.962-102.635-76.962-45.065 0-102.635 25.861-102.635 76.961 0 17.135 6.519 31.464 16.894 42.936 15.266-6.436 32.144-12.142 50.614-17.091z"/><path d="m108.303 286.374c38.915-12.402 88.372-18.675 147.697-18.675 42.004 0 79.056 3.147 110.931 9.383 8.327-6.043 15.5-12.493 21.486-19.343 19.346-22.139 26.114-48.839 19.056-75.182-7.058-26.339-26.268-46.076-54.093-55.575-31.167-10.64-73.136-9.024-124.744 4.802-51.607 13.826-88.761 33.411-110.431 58.21-19.344 22.138-26.111 48.838-19.054 75.181 2.052 7.656 5.136 14.748 9.152 21.199z"/><path d="m463.215 452c10.899-13.946 16.652-29.941 16.652-47.15 0-31.173-18.838-58.374-53.044-76.594-38.067-20.276-95.54-30.557-170.823-30.557s-132.756 10.281-170.822 30.557c-34.207 18.22-53.045 45.421-53.045 76.594 0 17.21 5.753 33.204 16.652 47.15z"/><path d="m497 482h-482c-8.284 0-15 6.716-15 15s6.716 15 15 15h482c8.284 0 15-6.716 15-15s-6.716-15-15-15z"/></g></svg>