<svg id="Capa_1" fill="#2f3542" enable-background="new 0 0 511.889 511.889" height="512" viewBox="0 0 511.889 511.889" width="512" xmlns="http://www.w3.org/2000/svg"><g><path d="m202.635 357.774 18.808-28.808c-17.939-6.081-32.485-20.305-38.727-38.773l-28.837 18.826c2.587-32.643-20.919-56.151-53.843-58.383-38.363-2.605-80.87 23.455-95.182 59.193-16.338 40.801 10.167 78.351 55.456 78.351 18.019 0 35.854-5.989 50.963-15.521 1.685-1.101-13.362 8.726 79.848-52.127-59.409 90.999-51.355 78.674-52.118 79.834-32.965 52.454-10.403 111.356 38.267 111.356 45.355 0 87.017-51.864 83.747-100.105-2.233-32.967-25.79-56.427-58.382-53.843zm-105.251-11.873c-38.115 24.887-78.595 9.83-64.68-24.921 8.946-22.34 37.11-40.522 62.078-40.522 10.068 0 20.723 3.132 26.061 11.625 9.248 14.713-1.475 38.893-23.459 53.818zm123.002 105.871c-22.162 35.262-64.054 43.381-66.802 2.866-2.148-31.682 26.973-67.157 53.765-67.157 25.993 0 31.321 35.201 13.037 64.291z"/><circle cx="241.403" cy="270.25" r="32"/><path d="m506.03 67.873c-5.368-4.126-12.838-4.145-18.227-.044l-186.968 141.543 127.4-185.687c3.772-5.468 3.499-12.765-.672-17.935-4.171-5.17-11.246-6.981-17.387-4.453-65.358 26.912-122.62 71.801-165.593 127.92-.104 0 .43-.562-8.924 11.653-14.89 19.447-19.511 45.61-10.941 69.657 46.181-12.825 88.775 29.158 76.598 75.554 23.196 7.419 48.763 2.422 67.538-13.959l18.93-16.516c53.009-46.25 96.187-105.08 122.972-170.13 2.581-6.261.643-13.475-4.726-17.603z"/></g></svg>